# xmcd
#
# Track frame offsets:
#	205
#	14718
#	35063
#	55510
#	79121
#	98982
#	116916
#	133435
#	151236
#	168177
#	196153
#	215797
#	237638
#
# Disc length: 3560 seconds
#
# Revision: 1
# Processed by: cddbd v1.5.1PL0 Copyright (c) Steve Scherf et al.
# Submitted via: EasyCDDAExtractor 6.2.0.3
#
DISCID=bc0de60d
DTITLE=Bruno Deneckere - Crescent of The Moon
DYEAR=2004
DGENRE=Blues
TTITLE0=Crescent of The Moon
TTITLE1=Lady Luck
TTITLE2=Guardian Angel
TTITLE3=Holding back on you
TTITLE4=Laura
TTITLE5=Beatrice
TTITLE6=Bed of Roses
TTITLE7=It never felt so right
TTITLE8=One good Shoulder
TTITLE9=Will you miss me
TTITLE10=Queen of Dancers
TTITLE11=Suitcase
TTITLE12=It took so long for me to find you
EXTD=
EXTT0=
EXTT1=
EXTT2=
EXTT3=
EXTT4=
EXTT5=
EXTT6=
EXTT7=
EXTT8=
EXTT9=
EXTT10=
EXTT11=
EXTT12=
PLAYORDER=
